<svg xmlns="http://www.w3.org/2000/svg" viewBox="0 0 1000 200"><defs><style>.minerva-base-style{}</style></defs><g transform="translate(0 0) scale(0.9523809523809523) translate(0 0)" style="fill: #4f9a94;"><title>minerva</title><path d="M105,0A105,105,0,1,0,210,105,105.1,105.1,0,0,0,105,0Zm0,207.1A102.1,102.1,0,1,1,207.1,105,102.2,102.2,0,0,1,105,207.1Z"/><path class="minerva-base-style" d="M166.6,97c-1.4-3.1-.5-5.1-.9-7.3s-2.7-7-4.3-10.8c-.7-1.7,3.8-1.3.4-7.6,0-.2,4.7-2,0-5.5a26.4,26.4,0,0,1-6-6.7,1,1,0,0,1,0-1.3c2.7-2.4,2.8-5.8-.1-7.5s-4.5,0-6.7,1.4c-.7.5-1.1.8-1.9.5L145.3,51c2.7-2.6,3.3-5.2,3.1-5.6s-4.6-1.3-10.2,1l-.4-.3c2.3-3.9,1-6.7.9-6.9h-.1A81,81,0,0,1,151,25.9h.1c.2-.3.3-.6-.2-.9l-1-.6A92.4,92.4,0,0,0,12.7,105c0,29.5,15,57.9,39.4,75.6a13.5,13.5,0,0,0,2.8,1.6A1.1,1.1,0,0,0,56,182l.3-.5a1,1,0,0,0,.3-.8c0-.7-.9-1.3-2.1-3a27.7,27.7,0,0,1-4.7-15.1,22.1,22.1,0,0,1,4.5-13.7c3.7,3.9,11.7,10.9,11.5,17.4s-6.9,6.8-5.4,12.2c.9,3.4,3.4,2,3.9,4.6.7,4.4,6.7,7.3,9.3,6.9.7-.1,1.2.4,2.4,1.7s6.2,1.6,8.2,1.2,4.1,1.4,8,.9,6.1-.9,8.2-.9,22.5-.3,36,1.8c2.4.4,3.1-.7,2.1-2.5-4.9-8.6-5.6-15.8-2.8-25,5,.4,12.2,1.7,21.6-4a11,11,0,0,0,5.1-9.5c-.1-2.1-1-4.7-.5-6.7s1.3-2.7,2.1-3.2c3.6-2.6,1-4.6.4-4.8a3.4,3.4,0,0,0,1.1-4.6c-.7-.7-2.7-6.2-.4-7.3s5.3-1.8,8.1-3.1a4.5,4.5,0,0,0,2.4-6C174.2,114.4,166.8,97.4,166.6,97ZM64.7,179.1c-.7.2-2.9.3-2.4-2.7s2.3-2.6,3.3-1.6S64.9,177.6,64.7,179.1Zm87-125.9c1.2-.8,2.5-1.1,3.3-.4,2.6,2.6-2.9,4.1-1.8,6.1a30.7,30.7,0,0,0,7.5,8.4c1.2,1,1.4,3.1-3.3,4.1s-23.6,5.9-33.6,16.5c-12.5,13.2-20.4,30.3-21.5,28s-3.6-2.8-3.2-3.5C117,81.6,145.1,57.3,151.7,53.2Zm8.2,21.7c-1,2.9-9.1,5.5-8.7,3.5s0-2.2.6-2.3,3.5-1.1,7.5-2.1C159.7,73.9,160.2,74.1,159.9,74.9Zm-20.6,5.3c-.2-1.2,8.5-4.1,8.8-3.3s-1.8,6-4.7,7-4.7.9-4.6.4A11,11,0,0,0,139.3,80.2ZM119,125.8c-4,2.5-6.2-2.2-6.8-3.1a3.7,3.7,0,0,1-.5-3.1c.3-1.4.5-3.3-.4-9.3-.4-2.7,5-9.2,6.3-10.4s3.1.6,3.2,2.6c.3,3.6-1.8,5.6-3.9,7.2s-3.1,4.4-2.6,5.1a1.5,1.5,0,0,0,1.9-.9c1.5-3.3,6-4.9,6.7-6.7s.3-4.4.2-5.6.9-1.2,1.6-1.1,1.4,1.4,1.8,2.7c2.9,7.5-4.3,12-5.5,13.8S122.1,123.9,119,125.8Zm6.1-29.1c-2.2,1.5-5.3-.5-4.7-1.4a43.7,43.7,0,0,1,11.5-11c3.4-2.1,3.8-2.3,4-1.1a10.6,10.6,0,0,1-2.6,7.5c-2.3,2.5-4.6,2.3-5.8,2.6S126.7,95.6,125.1,96.7Zm-19.3,25.6c-1-.2-1.4-2.1-1.2-2.9s3.1-5.2,4-6.4a.5.5,0,0,1,.8.3C110,117.4,109.4,123.1,105.8,122.3ZM138,48.2a17.7,17.7,0,0,1,7.5-1.6c.8.1-1.9,4.8-6.6,6.8s-8.5,2.5-8.9,2.3S134.1,49.9,138,48.2ZM54.7,126.5c-1.5-1.7-2.8-2.6-2.9-2.5a22.4,22.4,0,0,0-3.6,8.9A65.4,65.4,0,0,1,40.7,105C39.3,69.6,69,41.1,105.2,41.2a56.8,56.8,0,0,1,22.4,4.6,31.3,31.3,0,0,0-3.7,6.6c0-1.9-.5-3.4-.4-4.6s-5.1.9-9.7,8.3a19.9,19.9,0,0,0-2.2,5.3c-.1-2.8-.7-4.9-.9-4.9a16.1,16.1,0,0,0-8.5,8.8,22.4,22.4,0,0,0-1.1,3.4c-.2-1.9-.7-3.2-.9-3.2s-5.9,2.3-8.6,8.9A15.4,15.4,0,0,0,90.5,79c-.5-2.3-1.4-3.7-1.7-3.4-1.9,2.4-5.7,3.5-7.6,9.6a13.2,13.2,0,0,0-.7,4.2c-.8-2-2-3.2-2.3-3.2s-6.1,5.5-7,10.9a15.8,15.8,0,0,0,.2,5.8c-1.1-1.8-2.5-3-3.1-4.8-.9.5-5.7,5-5.8,10.7a19.7,19.7,0,0,0,.7,6.1c-1.6-2.9-3.8-4.2-4.1-4.1s-4,4.1-4.8,11.1A11.8,11.8,0,0,0,54.7,126.5Zm74.1-79.7c2.8-3.4,7.6-6.1,8.2-5.8s-.8,5.6-3.9,8.6-8.1,6.2-8.6,6.1S126.2,49.8,128.8,46.8Zm-9.3,13a21,21,0,0,0-5.6,6.4c-.5.9-1.9-5,1.7-10.6,2.2-3.5,6.6-6.6,6.5-6.2S124.2,56,119.5,59.8Zm-10.1,7.5c-3.4,5.1-3.6,3.3-7.3,8.3-.2.2-.2-6.5,1.1-9.4,2.1-4.7,5.7-7.4,6.2-7.5S111.3,64.5,109.4,67.3ZM98.3,77.4c-1.7,3-3.3,2.3-6.2,6.7-.3.4-1.1-3.6.7-9.1a12.6,12.6,0,0,1,5.9-6.9C99.3,68,100.4,73.8,98.3,77.4ZM88,88.1c-1.8,3.9-2.9,4-5,6.4-.3.4-1.8-3.7-.4-8.8s4-5.6,5.3-7S89.9,84,88,88.1Zm-8.4,6.6a10.3,10.3,0,0,1-.4,3c-1.3,4.3-3.9,6.2-5.3,8.1a15.7,15.7,0,0,1-1.6-5.8,15.2,15.2,0,0,1,5.2-11.2C78.3,88.8,79.6,92,79.6,94.7Zm-8.5,12.8A14.9,14.9,0,0,1,66,118.3a17.7,17.7,0,0,1-2.2-7.6c-.2-6.3,2.4-8.5,3.6-9.7C67.9,102.8,71.1,104.2,71.1,107.5ZM59,113.8c1.8.9,3.9,3.4,4.1,8.2s-3.2,8.7-4.6,9.4c-.9-3.7-2.6-4.4-2.6-8A18,18,0,0,1,59,113.8Zm7.3,12.5c4.6-2,9.6-1.7,9.8-1.5s-1.5,5.9-5.9,8.2-9.5,2.7-10,2.1S61.7,128.3,66.3,126.3Zm-.4-3.4c.3-1.5,3-6.5,7.1-8.3h0a18.4,18.4,0,0,1,9.4-1.5c.5.2-1.7,5.6-5.8,7.6S70.1,121.6,65.9,122.9Zm6.9-11.8c.2-.4,3.5-6.4,7.4-8.2a17.5,17.5,0,0,1,8.9-1.4c.3.1-1.8,5.4-6.2,7.6S72.6,111.6,72.8,111.1Zm8.9-11.9c-.3-.2,4.4-6.4,8.4-8.3a15.6,15.6,0,0,1,8.4-1c.3.3-1.9,5.5-6.5,7.5A24.2,24.2,0,0,1,81.7,99.2ZM92.4,87.4c-.2-.2,3.4-6.3,7.4-7.9s7.7-.1,8.9,0-1.3,4.5-6.6,6.4S93.1,87.7,92.4,87.4Zm12-11.4c.1-.3,4.1-5.9,8.1-7.3a16.4,16.4,0,0,1,9.2-.2c.5.2-2.8,5-7.7,6.5S104.3,76.3,104.4,76Zm12.1-9.9c-.5-.3,4.3-5.7,8.2-7.2a18,18,0,0,1,8.3-1c.3.2-2.5,4.9-7.1,6.7S117.1,66.5,116.5,66.1ZM50.2,175.3C28.6,158.1,15.6,132.1,15.6,105A89.3,89.3,0,0,1,146.4,25.8a.4.4,0,0,1,.1.7,97.3,97.3,0,0,0-10.2,11.4,73.1,73.1,0,0,0-31.3-7A74.3,74.3,0,0,0,30.9,105a72.1,72.1,0,0,0,17.9,48.2,23.1,23.1,0,0,0-1.9,9.4A25.6,25.6,0,0,0,50.2,175.3Zm.2-24.8h-.1A69.2,69.2,0,0,1,33.9,105,71.2,71.2,0,0,1,105,33.9a70.1,70.1,0,0,1,29.6,6.4,22.6,22.6,0,0,0-4.1,2.6A63.1,63.1,0,0,0,105,37.8,67.3,67.3,0,0,0,37.8,105c0,16.1,5,30.2,14.8,42C52.1,147.9,51.3,149.1,50.4,150.5Zm3.5-5.6c-1.3-1.2-4.1-4.3-4.4-8.3V136c0-4.3,1.9-8.6,2.4-9s5.3,3.3,5.4,8.7A14.4,14.4,0,0,1,53.9,144.9Zm8-7.2c3.9-1.8,9.6-1.4,9.3-1.1s-1.8,5.8-6.2,8a12.1,12.1,0,0,1-8.7,1.3C58.6,143.3,58.1,139.5,61.9,137.7Zm5.2,46.5c-.6-2.7-.4-6.3.5-7.3s4.9-1.2,5-.1-1.1,5.4.3,10.2C72.6,187.7,68.3,187.4,67.1,184.2Zm.3-11.1c-.3-2,1.6-3.9,1.6-8.2s-6.6-12.6-11.1-17.3a19.5,19.5,0,0,0,7.9-1.9c6.6-3.1,7.9-10.1,8.1-10.4a11,11,0,0,0-3.8-.4l.8-.4c6.4-3.5,8.1-11,7.8-11.1a17,17,0,0,0-4-.3l2-.7c6.8-2.7,8.7-10.3,8.5-10.6a16.1,16.1,0,0,0-3.5-.4l1.9-.8c6.2-3.1,8.4-10.1,8.1-10.3a10.5,10.5,0,0,0-3.3-.4,23.7,23.7,0,0,0,4.5-1.5c6.7-2.9,8.9-9.3,8.6-9.6a10.9,10.9,0,0,0-3-.5,34.5,34.5,0,0,0,4.4-1.3c6.6-2.2,9.2-8.5,8.8-8.6l-3.7-.8a24.5,24.5,0,0,0,6.6-1.3c7.1-2.4,9.6-6.7,9.8-8.6a6,6,0,0,0-2.3-.8,29.3,29.3,0,0,0,4.7-1.2c6.6-2.7,9.4-9.3,9.6-9.8a29.3,29.3,0,0,0,3.9-1.6l1.9-.9,1.6,1.1c1,.6,1.4.8.9,1.2C122,75,105,99.5,97.6,111.3c-.2.4-.6.3-1.3.3-7.9-.6-12.4,8.9-8.9,17.8-.4,1.8-4.2,5.3-4.5,5.5s-1,1.4.3,1.3,4.2-3.2,5.4-4.5c.4.6,2.2,2,1.3,2.8A63.6,63.6,0,0,1,76,145c-2.6,1.2,4.2,2.1,15.7-8.3.7-.6,1.5,2.4,2.5,3.7-2,6.5,2.9,19.1,2.1,23a2.8,2.8,0,0,1-2.8,2.7c-11.4.3-12.5-.3-18.3,1.4-2.7.8-2,2.6-.1,2.1s4.6-1.5,16.9-.7c3.1.1,6.5-.6,6.5-5.7s-3.6-18.4-2.4-20.3a6.9,6.9,0,0,0,3.5,1.4c-.2,4.5,7,19,3.8,27-1.2,3-6.4,2.7-15.4,1.8C72.7,171.6,67.7,174.9,67.4,173.1Zm35.1,9.9c-5.9,2-8.3-4.9-7.3-6.4s4.4,1,7.3-.9S106,181.8,102.5,183Zm-27,4.3c-.8-3.7-1.1-10,.4-11.5s4.9-.9,4.8.2c-.3,4.3-2.1,9.2,1.2,14.1C83.2,192,76.7,192.3,75.5,187.3Zm11.4,4.2c-1.6-.4-6-7.4-2.4-15.8.3-.8,5.8-.3,6.8,0s-.8,6.8,6.8,9.8C98.8,185.8,98,194.3,86.9,191.5Zm47.2-23.3c-2.5,8.8-3.8,12.3,0,21.9.5,1.3.9,2.3-.2,2.1-7.7-1.4-9.4-2.6-33.7-.6-1.7.2.6-3.4.3-5.8,2.2-.3,5.8-1.3,6.5-4.9s-2.1-7.6-1.8-8.2c3.5-6.7-.2-14.1-3.1-26.6-.3-1.2.4-1.7.9-1.1,15.6,16.9,25.5,20.2,30.9,21.8C134.4,167,134.3,167.6,134.1,168.2ZM174,122.1c-3.3,2.9-8.3,3.1-10.3,4.9s-1.5,2.5-.4,5.2,1.1,1.7-1.1,2.3-4.1,5.8-8.8,4.9c-1.8-.3-.5.8.2.9,2.6.3,3.7-.5,4.6-1.4s2.2-2.4,3.6-2.9,2.9-.5,3,.6-1.9,2.1-2.7,2.5c1,.5,3.9,1.9,1.4,3.6s-4.6-.5-4.9-.7-1.7-.2-1.3.3,5.2,1.3,4.5,2.2c-3.5,4.7-.6,7.5-1.7,12.3s-7.7,7.5-12.8,8.4c-17.4,3.1-34.3-11.6-44.2-22.8.9-2.1.8-4.8-.1-3.8s-.7,2.4-2.8,2.9c-3.9,1-5.7-5.9-6.9-7.1-4.8-4.7-6.7-11.4-3.9-17.3s9-4.7,11.4-1.1,1.7,7,3.4,8.3,4.8.2,5.4,0,1.7,4.3,8,4.1,5.9-10.7,6.9-11.6c8.6-8.4,4.2-15.9,2.6-17.6s1-3.6,1.5-3.7a13,13,0,0,0,9.4-7.7s8.4-.2,11.4-6.2c.8-1.6,3.3,1.5,8.9-2.9a.8.8,0,0,1,1.4.3c3.7,8.9,5.2,11.3,4.9,15.8s8.7,21.5,9.4,23.1S174.8,121.3,174,122.1Z"/><path class="minerva-base-style" d="M153.8,90c-4.9.2-10.6,6.2-12.4,7s-1.3,1.5-.2,1.1,5.9-4.7,10.7-6.4,3.6,1.8,5,1.6S156.6,89.9,153.8,90Z"/><path class="minerva-base-style" d="M154.9,94.8c-.4.1.4,2.2-1.7,2.3-4.6.3-8.3,4.7-11.1,6a12.9,12.9,0,0,1-3.8,1.4.3.3,0,0,0,.1.6c11.7,1.6,16.2,1.1,16.3.7s-.6-1.2-.4-1.7a11.3,11.3,0,0,0,.1-5.5c-.2-.8,1.8-.3,1.8-1.3S155.6,94.7,154.9,94.8Zm-1.8,9.3c-.2.9-5.5.5-8.3.2-.7,0-1.8-.1.3-1.4s4.1-2.8,7.2-3.4a.8.8,0,0,1,.8.6A10.6,10.6,0,0,1,153.1,104.1Z"/><path class="minerva-base-style" d="M168.4,120.8c-.9,0-4.5,1.6-5.9,2.5s-4.4,2.7-4.2-.8c.1-1.3.9-4.4.9-5.3s-1-.7-1.1,0a36.9,36.9,0,0,1-.7,5.3c-.4,1.8,1.2,4,3.6,2.7s4.8-2.9,7.3-3.4C168.9,121.7,169,120.8,168.4,120.8Z"/><path class="minerva-base-style" d="M100.5,133.6c-.7-.3-.5,1.2-1.4,1s-.2-1.3-1.8-3-2.8-1.2-4.3-3.6-.3-12,3.1-10.8,1.6,5,1,8,2.5,2.8,2.8,2.1-1.1-.9-1.4-1.9,3.5-7.6-1.8-9.4c-3.8-1.3-6.4,3.6-5.9,8.9a8,8,0,0,0,5.1,7.1c2.3.8.6,4,3.7,4C101,136,101.3,133.9,100.5,133.6Z"/><path class="minerva-base-style" d="M131.3,33.4c.2.1.3,0,.5-.1l6.5-8.3a.5.5,0,0,0-.2-.6L137,24a.4.4,0,0,0-.5.1L130,32.4c-.2.2-.1.5.2.6Z"/><path class="minerva-base-style" d="M119.2,30l1.1.3a.5.5,0,0,0,.5-.3l3.8-9.4a.4.4,0,0,0-.3-.6l-1.2-.2h-.3l-3.9,9.6A.4.4,0,0,0,119.2,30Z"/><path class="minerva-base-style" d="M105.8,28.7h1.1c.2.1.4-.1.4-.3l1-10a.5.5,0,0,0-.4-.5h-1.1c-.3,0-.4.2-.5.4l-.9,10A.4.4,0,0,0,105.8,28.7Z"/><path class="minerva-base-style" d="M92.8,29.7l1.1-.2c.2,0,.4-.2.3-.4l-1.9-9.9c0-.2-.2-.4-.4-.3H90.7c-.2.1-.4.3-.3.5l1.9,9.9C92.3,29.6,92.5,29.7,92.8,29.7Z"/><path class="minerva-base-style" d="M79.4,32.8l.5.2,1.1-.4a.4.4,0,0,0,.3-.6l-4.6-9a.4.4,0,0,0-.5-.2l-1,.3a.4.4,0,0,0-.3.6Z"/><path class="minerva-base-style" d="M67,38.5c.1.2.3.2.5.1l1-.6a.4.4,0,0,0,.1-.6l-6.7-7.7c-.2-.2-.4-.2-.5-.1l-1,.6c-.3.1-.3.4-.1.6Z"/><path class="minerva-base-style" d="M55.4,46.7c.2.1.4.1.5-.1l.9-.7a.5.5,0,0,0,0-.7l-8.5-5.9h-.5l-.9.8a.5.5,0,0,0,0,.7Z"/><path class="minerva-base-style" d="M45.4,57.1a.4.4,0,0,0,.4-.2l.8-.9c.2-.2.1-.5-.2-.6l-9.8-3.8c-.2-.1-.4-.1-.5.1l-.7.9a.4.4,0,0,0,.2.7Z"/><path class="minerva-base-style" d="M26.8,67.8l10.5,1.5c.2,0,.4-.1.4-.3l.6-1a.4.4,0,0,0-.3-.6L27.5,65.9l-.5.2a5.4,5.4,0,0,1-.5,1.1A.4.4,0,0,0,26.8,67.8Z"/><path class="minerva-base-style" d="M21.1,83.7l10.7-1a.3.3,0,0,0,.3-.3,7.6,7.6,0,0,0,.4-1.1.4.4,0,0,0-.4-.6l-10.8,1-.4.3-.3,1.2C20.6,83.5,20.8,83.8,21.1,83.7Z"/><path class="minerva-base-style" d="M29.2,96.5c0-.4.1-.9.1-1.3s-.2-.5-.5-.4L18.4,98.4c-.2.1-.3.2-.3.4s-.1.8-.1,1.2a.4.4,0,0,0,.6.4l10.3-3.6A.3.3,0,0,0,29.2,96.5Z"/><path class="minerva-base-style" d="M28.9,110.8v-1.3a.5.5,0,0,0-.7-.4l-9.4,6.3c-.2,0-.2.2-.2.4s.1.8.1,1.2a.5.5,0,0,0,.7.3l9.4-6.2C28.9,111,29,110.9,28.9,110.8Z"/><path class="minerva-base-style" d="M31.3,125l-.3-1.3a.4.4,0,0,0-.7-.2L22.6,132c-.1.1-.2.3-.1.4s.3.8.4,1.2a.4.4,0,0,0,.7.2l7.6-8.4C31.3,125.3,31.3,125.2,31.3,125Z"/><path class="minerva-base-style" d="M35.2,137.7,29.8,148c-.1.1,0,.3,0,.4l.7,1.2a.4.4,0,0,0,.7-.1l5.4-10.2c0-.1.1-.2,0-.4l-.6-1.2A.5.5,0,0,0,35.2,137.7Z"/><path class="minerva-base-style" d="M42.9,149.3c-.2-.3-.7-.2-.7.1l-2.9,12c-.1.2,0,.3,0,.4l1,1a.4.4,0,0,0,.7-.1l2.8-11.9c.1-.1,0-.2,0-.3Z"/></g><g transform="translate(220 37.99105048391831)"><g transform="translate(0 56.580008358952085)" style="fill: #4f9a94;"><path d="M3.141-35L12.609-35L21.656-9.620L30.641-35L40.172-35L40.172 0L32.891 0L32.891-9.574L33.625-26.079L24.125 0L19.141 0L9.672-26.063L10.391-9.574L10.391 0L3.141 0L3.141-35ZM74.453 0L72.016-7.125L59.297-7.125L56.875 0L49.172 0L62.266-35L68.984-35L82.156 0L74.453 0ZM65.625-26.157L61.250-13L70.047-13L65.625-26.157ZM96.141-35L102.734-22.940L109.328-35L117.672-35L107.422-17.640L117.938 0L109.500 0L102.734-12.262L95.969 0L87.531 0L98.047-17.640L87.797-35L96.141-35ZM157.750-12.141L151.391-12.141L151.391 0L144.141 0L144.141-35L157.875-35Q161.828-35 164.844-33.550Q167.859-32.099 169.477-29.418Q171.094-26.737 171.094-23.319L171.094-23.319Q171.094-18.130 167.555-15.135Q164.016-12.141 157.750-12.141L157.750-12.141ZM151.391-29.125L151.391-18L157.875-18Q160.750-18 162.258-19.369Q163.766-20.738 163.766-23.271L163.766-23.271Q163.766-25.868 162.242-27.473Q160.719-29.078 158.047-29.125L158.047-29.125L151.391-29.125ZM188.391-35L188.391-5.828L203.797-5.828L203.797 0L181.141 0L181.141-35L188.391-35ZM235.453 0L233.016-7.125L220.297-7.125L217.875 0L210.172 0L223.266-35L229.984-35L243.156 0L235.453 0ZM226.625-26.157L222.250-13L231.047-13L226.625-26.157ZM279.766-35L279.766 0L272.516 0L258.391-23.033L258.391 0L251.141 0L251.141-35L258.391-35L272.531-11.921L272.531-35L279.766-35ZM311.516-12.203L318.766-12.203Q318.359-6.531 314.578-3.266Q310.797 0 304.609 0L304.609 0Q297.844 0 293.961-4.535Q290.078-9.070 290.078-16.989L290.078-16.989L290.078-19.136Q290.078-24.192 291.867-28.042Q293.656-31.893 296.977-33.946Q300.297-36 304.703-36L304.703-36Q310.797-36 314.516-32.742Q318.234-29.484 318.813-23.578L318.813-23.578L311.563-23.578Q311.297-26.984 309.664-28.523Q308.031-30.063 304.703-30.063L304.703-30.063Q301.078-30.063 299.273-27.478Q297.469-24.893 297.422-19.475L297.422-19.475L297.422-16.820Q297.422-11.154 299.156-8.538Q300.891-5.922 304.609-5.922L304.609-5.922Q307.969-5.922 309.625-7.461Q311.281-9 311.516-12.203L311.516-12.203ZM348.203 0L339.156-14.034L335.391-10.009L335.391 0L328.141 0L328.141-35L335.391-35L335.391-19.132L338.578-23.484L347.547-35L356.469-35L343.969-19.443L356.828 0L348.203 0ZM389.859-35L389.859 0L382.594 0L382.594-35L389.859-35ZM429.766-35L429.766 0L422.516 0L408.391-23.033L408.391 0L401.141 0L401.141-35L408.391-35L422.531-11.921L422.531-35L429.766-35ZM459.391-9.692L459.391-9.692Q459.391-11.726 457.938-12.820Q456.484-13.914 452.719-15.125Q448.953-16.335 446.750-17.518L446.750-17.518Q440.750-20.754 440.750-26.214L440.750-26.214Q440.750-29.046 442.359-31.271Q443.969-33.495 446.977-34.748Q449.984-36 453.734-36L453.734-36Q457.500-36 460.453-34.639Q463.406-33.277 465.039-30.804Q466.672-28.330 466.672-25.172L466.672-25.172L459.422-25.172Q459.422-27.572 457.898-28.903Q456.375-30.234 453.609-30.234L453.609-30.234Q450.953-30.234 449.477-29.121Q448-28.008 448-26.184L448-26.184Q448-24.483 449.734-23.339Q451.469-22.195 454.828-21.182L454.828-21.182Q461.016-19.329 463.844-16.580Q466.672-13.831 466.672-9.735L466.672-9.735Q466.672-5.187 463.211-2.593Q459.750 0 453.906 0L453.906 0Q449.844 0 446.508-1.478Q443.172-2.956 441.422-5.531Q439.672-8.105 439.672-11.497L439.672-11.497L446.938-11.497Q446.938-5.734 453.906-5.734L453.906-5.734Q456.484-5.734 457.938-6.774Q459.391-7.814 459.391-9.692ZM503.641-35L503.641-29.125L492.859-29.125L492.859 0L485.609 0L485.609-29.125L474.969-29.125L474.969-35L503.641-35ZM519.859-35L519.859 0L512.594 0L512.594-35L519.859-35ZM557.641-35L557.641-29.125L546.859-29.125L546.859 0L539.609 0L539.609-29.125L528.969-29.125L528.969-35L557.641-35ZM585.500-35L592.781-35L592.781-12.265Q592.781-6.592 589.164-3.296Q585.547 0 579.297 0L579.297 0Q573.125 0 569.500-3.204Q565.875-6.408 565.797-12.004L565.797-12.004L565.797-35L573.063-35L573.063-12.304Q573.063-8.929 574.711-7.378Q576.359-5.828 579.297-5.828L579.297-5.828Q585.406-5.828 585.500-12.105L585.500-12.105L585.500-35ZM630.641-35L630.641-29.125L619.859-29.125L619.859 0L612.609 0L612.609-29.125L601.969-29.125L601.969-35L630.641-35ZM661.313-21L661.313-15.313L647.391-15.313L647.391-5.828L663.734-5.828L663.734 0L640.141 0L640.141-35L663.688-35L663.688-29.125L647.391-29.125L647.391-21L661.313-21Z"/></g><g transform="translate(0 102.279070114022)" style="fill: #4f9a94;"><path d="M18.969-16L18.969-12.922L7.047-12.922L7.047 0L3.297 0L3.297-28.422L20.906-28.422L20.906-25.344L7.047-25.344L7.047-16L18.969-16ZM49.172-15.094L49.172-13.297Q49.172-9.109 47.766-6Q46.359-2.891 43.781-1.250Q41.203 0.391 37.766 0.391L37.766 0.391Q34.406 0.391 31.813-1.258Q29.219-2.906 27.781-5.961Q26.344-9.016 26.297-13.047L26.297-13.047L26.297-15.094Q26.297-19.188 27.727-22.336Q29.156-25.484 31.758-27.148Q34.359-28.813 37.719-28.813L37.719-28.813Q41.141-28.813 43.750-27.164Q46.359-25.516 47.766-22.383Q49.172-19.250 49.172-15.094L49.172-15.094ZM45.438-13.016L45.438-15.125Q45.438-20.188 43.406-22.891Q41.375-25.594 37.719-25.594L37.719-25.594Q34.172-25.594 32.133-22.891Q30.094-20.188 30.031-15.391L30.031-15.391L30.031-13.297Q30.031-8.391 32.094-5.594Q34.156-2.797 37.766-2.797L37.766-2.797Q41.391-2.797 43.383-5.438Q45.375-8.078 45.438-13.016L45.438-13.016ZM72.891 0L66.719-11.938L60.047-11.938L60.047 0L56.281 0L56.281-28.422L65.688-28.422Q70.484-28.422 73.078-26.291Q75.672-24.160 75.672-20.096L75.672-20.096Q75.672-17.508 74.234-15.591Q72.797-13.673 70.234-12.714L70.234-12.714L76.922-0.242L76.922 0L72.891 0ZM60.047-25.344L60.047-15L65.813-15Q68.594-15 70.242-16.387Q71.891-17.773 71.891-20.097L71.891-20.097Q71.891-22.630 70.320-23.980Q68.750-25.329 65.781-25.344L65.781-25.344L60.047-25.344ZM112.938-28.422L112.938-25.344L103.797-25.344L103.797 0L100.078 0L100.078-25.344L90.953-25.344L90.953-28.422L112.938-28.422ZM140.141-28.422L140.141 0L136.375 0L136.375-12.938L122.047-12.938L122.047 0L118.297 0L118.297-28.422L122.047-28.422L122.047-16L136.375-16L136.375-28.422L140.141-28.422ZM164.359-16L164.359-12.938L152.047-12.938L152.047-3.063L166.359-3.063L166.359 0L148.297 0L148.297-28.422L166.156-28.422L166.156-25.344L152.047-25.344L152.047-16L164.359-16ZM192.672-12.672L192.672-12.672Q187.859-14.063 185.656-16.078Q183.453-18.094 183.453-21.063L183.453-21.063Q183.453-24.422 186.141-26.617Q188.828-28.813 193.125-28.813L193.125-28.813Q196.047-28.813 198.344-27.680Q200.641-26.547 201.898-24.555Q203.156-22.563 203.156-20.203L203.156-20.203L199.391-20.203Q199.391-22.781 197.750-24.258Q196.109-25.734 193.125-25.734L193.125-25.734Q190.344-25.734 188.797-24.516Q187.250-23.297 187.250-21.125L187.250-21.125Q187.250-19.391 188.719-18.188Q190.188-16.984 193.734-15.992Q197.281-15 199.281-13.797Q201.281-12.594 202.250-10.992Q203.219-9.391 203.219-7.219L203.219-7.219Q203.219-3.766 200.523-1.688Q197.828 0.391 193.313 0.391L193.313 0.391Q190.391 0.391 187.852-0.734Q185.313-1.859 183.938-3.813Q182.563-5.766 182.563-8.234L182.563-8.234L186.328-8.234Q186.328-5.656 188.234-4.164Q190.141-2.672 193.313-2.672L193.313-2.672Q196.281-2.672 197.867-3.883Q199.453-5.094 199.453-7.180Q199.453-9.266 197.984-10.414Q196.516-11.563 192.672-12.672ZM226.438-9.016L230.203-9.016Q229.688-4.516 226.883-2.063Q224.078 0.391 219.438 0.391L219.438 0.391Q214.391 0.391 211.359-3.219Q208.328-6.828 208.328-12.891L208.328-12.891L208.328-15.625Q208.328-19.578 209.742-22.586Q211.156-25.594 213.750-27.203Q216.344-28.813 219.766-28.813L219.766-28.813Q224.297-28.813 227.031-26.289Q229.766-23.766 230.203-19.281L230.203-19.281L226.438-19.281Q225.953-22.688 224.320-24.211Q222.688-25.734 219.766-25.734L219.766-25.734Q216.172-25.734 214.133-23.078Q212.094-20.422 212.094-15.516L212.094-15.516L212.094-12.766Q212.094-8.141 214.023-5.406Q215.953-2.672 219.438-2.672L219.438-2.672Q222.563-2.672 224.227-4.086Q225.891-5.500 226.438-9.016L226.438-9.016ZM241.328-28.422L241.328 0L237.578 0L237.578-28.422L241.328-28.422ZM266.359-16L266.359-12.938L254.047-12.938L254.047-3.063L268.359-3.063L268.359 0L250.297 0L250.297-28.422L268.156-28.422L268.156-25.344L254.047-25.344L254.047-16L266.359-16ZM296.141-28.422L296.141 0L292.375 0L278.063-21.906L278.063 0L274.297 0L274.297-28.422L278.063-28.422L292.422-6.422L292.422-28.422L296.141-28.422ZM321.438-9.016L325.203-9.016Q324.688-4.516 321.883-2.063Q319.078 0.391 314.438 0.391L314.438 0.391Q309.391 0.391 306.359-3.219Q303.328-6.828 303.328-12.891L303.328-12.891L303.328-15.625Q303.328-19.578 304.742-22.586Q306.156-25.594 308.750-27.203Q311.344-28.813 314.766-28.813L314.766-28.813Q319.297-28.813 322.031-26.289Q324.766-23.766 325.203-19.281L325.203-19.281L321.438-19.281Q320.953-22.688 319.320-24.211Q317.688-25.734 314.766-25.734L314.766-25.734Q311.172-25.734 309.133-23.078Q307.094-20.422 307.094-15.516L307.094-15.516L307.094-12.766Q307.094-8.141 309.023-5.406Q310.953-2.672 314.438-2.672L314.438-2.672Q317.563-2.672 319.227-4.086Q320.891-5.500 321.438-9.016L321.438-9.016ZM348.359-16L348.359-12.938L336.047-12.938L336.047-3.063L350.359-3.063L350.359 0L332.297 0L332.297-28.422L350.156-28.422L350.156-25.344L336.047-25.344L336.047-16L348.359-16ZM389.172-15.094L389.172-13.297Q389.172-9.109 387.766-6Q386.359-2.891 383.781-1.250Q381.203 0.391 377.766 0.391L377.766 0.391Q374.406 0.391 371.813-1.258Q369.219-2.906 367.781-5.961Q366.344-9.016 366.297-13.047L366.297-13.047L366.297-15.094Q366.297-19.188 367.727-22.336Q369.156-25.484 371.758-27.148Q374.359-28.813 377.719-28.813L377.719-28.813Q381.141-28.813 383.750-27.164Q386.359-25.516 387.766-22.383Q389.172-19.250 389.172-15.094L389.172-15.094ZM385.438-13.016L385.438-15.125Q385.438-20.188 383.406-22.891Q381.375-25.594 377.719-25.594L377.719-25.594Q374.172-25.594 372.133-22.891Q370.094-20.188 370.031-15.391L370.031-15.391L370.031-13.297Q370.031-8.391 372.094-5.594Q374.156-2.797 377.766-2.797L377.766-2.797Q381.391-2.797 383.383-5.438Q385.375-8.078 385.438-13.016L385.438-13.016ZM411.969-16L411.969-12.922L400.047-12.922L400.047 0L396.297 0L396.297-28.422L413.906-28.422L413.906-25.344L400.047-25.344L400.047-16L411.969-16ZM454.141-28.422L454.141 0L450.375 0L450.375-12.938L436.047-12.938L436.047 0L432.297 0L432.297-28.422L436.047-28.422L436.047-16L450.375-16L450.375-28.422L454.141-28.422ZM478.547-28.422L482.313-28.422L482.313-9.094Q482.297-5.078 479.781-2.523Q477.266 0.031 472.984 0.344L472.984 0.344L471.984 0.391Q467.313 0.391 464.539-2.125Q461.766-4.641 461.734-9.063L461.734-9.063L461.734-28.422L465.438-28.422L465.438-9.172Q465.438-6.094 467.141-4.383Q468.844-2.672 471.984-2.672L471.984-2.672Q475.172-2.672 476.859-4.375Q478.547-6.078 478.547-9.156L478.547-9.156L478.547-28.422ZM489.297-28.422L494.141-28.422L503.438-5.234L512.719-28.422L517.594-28.422L517.594 0L513.844 0L513.844-11.063L514.188-23.016L504.859 0L501.984 0L492.672-22.953L493.047-11.063L493.047 0L489.297 0L489.297-28.422ZM544.703 0L542-7.922L530.094-7.922L527.406 0L523.547 0L534.406-28.422L537.688-28.422L548.563 0L544.703 0ZM536.047-23.797L531.219-11L540.875-11L536.047-23.797ZM576.141-28.422L576.141 0L572.375 0L558.063-21.906L558.063 0L554.297 0L554.297-28.422L558.063-28.422L572.422-6.422L572.422-28.422L576.141-28.422ZM617.141-28.422L617.141 0L613.375 0L613.375-12.938L599.047-12.938L599.047 0L595.297 0L595.297-28.422L599.047-28.422L599.047-16L613.375-16L613.375-28.422L617.141-28.422ZM630.328-28.422L630.328 0L626.578 0L626.578-28.422L630.328-28.422ZM646.672-12.672L646.672-12.672Q641.859-14.063 639.656-16.078Q637.453-18.094 637.453-21.063L637.453-21.063Q637.453-24.422 640.141-26.617Q642.828-28.813 647.125-28.813L647.125-28.813Q650.047-28.813 652.344-27.680Q654.641-26.547 655.898-24.555Q657.156-22.563 657.156-20.203L657.156-20.203L653.391-20.203Q653.391-22.781 651.750-24.258Q650.109-25.734 647.125-25.734L647.125-25.734Q644.344-25.734 642.797-24.516Q641.250-23.297 641.250-21.125L641.250-21.125Q641.250-19.391 642.719-18.188Q644.188-16.984 647.734-15.992Q651.281-15 653.281-13.797Q655.281-12.594 656.250-10.992Q657.219-9.391 657.219-7.219L657.219-7.219Q657.219-3.766 654.523-1.688Q651.828 0.391 647.313 0.391L647.313 0.391Q644.391 0.391 641.852-0.734Q639.313-1.859 637.938-3.813Q636.563-5.766 636.563-8.234L636.563-8.234L640.328-8.234Q640.328-5.656 642.234-4.164Q644.141-2.672 647.313-2.672L647.313-2.672Q650.281-2.672 651.867-3.883Q653.453-5.094 653.453-7.180Q653.453-9.266 651.984-10.414Q650.516-11.563 646.672-12.672ZM682.938-28.422L682.938-25.344L673.797-25.344L673.797 0L670.078 0L670.078-25.344L660.953-25.344L660.953-28.422L682.938-28.422ZM710.172-15.094L710.172-13.297Q710.172-9.109 708.766-6Q707.359-2.891 704.781-1.250Q702.203 0.391 698.766 0.391L698.766 0.391Q695.406 0.391 692.813-1.258Q690.219-2.906 688.781-5.961Q687.344-9.016 687.297-13.047L687.297-13.047L687.297-15.094Q687.297-19.188 688.727-22.336Q690.156-25.484 692.758-27.148Q695.359-28.813 698.719-28.813L698.719-28.813Q702.141-28.813 704.750-27.164Q707.359-25.516 708.766-22.383Q710.172-19.250 710.172-15.094L710.172-15.094ZM706.438-13.016L706.438-15.125Q706.438-20.188 704.406-22.891Q702.375-25.594 698.719-25.594L698.719-25.594Q695.172-25.594 693.133-22.891Q691.094-20.188 691.031-15.391L691.031-15.391L691.031-13.297Q691.031-8.391 693.094-5.594Q695.156-2.797 698.766-2.797L698.766-2.797Q702.391-2.797 704.383-5.438Q706.375-8.078 706.438-13.016L706.438-13.016ZM733.891 0L727.719-11.938L721.047-11.938L721.047 0L717.281 0L717.281-28.422L726.688-28.422Q731.484-28.422 734.078-26.291Q736.672-24.160 736.672-20.096L736.672-20.096Q736.672-17.508 735.234-15.591Q733.797-13.673 731.234-12.714L731.234-12.714L737.922-0.242L737.922 0L733.891 0ZM721.047-25.344L721.047-15L726.813-15Q729.594-15 731.242-16.387Q732.891-17.773 732.891-20.097L732.891-20.097Q732.891-22.630 731.320-23.980Q729.750-25.329 726.781-25.344L726.781-25.344L721.047-25.344ZM744.594-28.422L751.969-14.156L759.391-28.422L763.641-28.422L753.844-10.594L753.844 0L750.094 0L750.094-10.594L740.297-28.422L744.594-28.422Z"/></g></g></svg>